<?xml version="1.0" encoding="UTF-8"?>
<svg width="38px" height="23px" viewBox="0 0 38 23" version="1.1" xmlns="http://www.w3.org/2000/svg" xmlns:xlink="http://www.w3.org/1999/xlink">
    <title>medium</title>
    <g id="Page-1" stroke="none" stroke-width="1" fill="none" fill-rule="evenodd">
        <g id="medium" fill="#EA7B24" fill-rule="nonzero">
            <path d="M36.593,21.63 L36.593,21.63 C38.149,20.074 38.149,17.529 36.593,15.973 L21.824,1.204 C20.268,-0.352 17.723,-0.352 16.167,1.204 L16.167,1.204 C14.611,2.76 14.611,5.305 16.167,6.861 L30.936,21.63 C32.491,23.185 35.037,23.185 36.593,21.63 Z" id="Path"></path>
            <path d="M1.241,21.63 L1.241,21.63 C-0.315,20.074 -0.315,17.529 1.241,15.973 L16.01,1.204 C17.566,-0.352 20.111,-0.352 21.667,1.204 L21.667,1.204 C23.223,2.76 23.223,5.305 21.667,6.861 L6.897,21.63 C5.342,23.185 2.796,23.185 1.241,21.63 Z" id="Path"></path>
        </g>
    </g>
</svg>